if (_typeface_js && _typeface_js.loadFace) _typeface_js.loadFace({"glyphs":{"S":{"x_min":47,"x_max":825,"ha":875,"o":"m 143 327 l 47 327 q 75 169 47 235 q 156 62 103 104 q 284 1 209 21 q 446 -19 359 -19 q 596 -3 533 -19 q 700 38 658 12 q 767 96 743 64 q 804 159 791 128 q 821 218 818 190 q 825 263 825 246 q 804 367 825 324 q 749 440 784 410 q 667 490 713 470 q 567 524 620 510 l 325 584 q 268 602 295 591 q 220 631 241 613 q 187 675 199 649 q 176 735 176 700 q 196 828 176 791 q 251 889 217 866 q 331 922 286 912 q 425 933 376 933 q 526 918 478 933 q 611 875 574 903 q 671 804 648 846 q 694 705 694 762 l 790 705 q 760 839 790 781 q 680 936 730 897 q 563 994 630 975 q 423 1014 497 1014 q 252 984 319 1014 q 147 911 186 954 q 95 819 109 867 q 82 734 82 770 q 100 635 82 675 q 149 567 119 595 q 221 522 180 539 q 305 495 262 506 l 525 440 q 596 419 560 432 q 663 385 633 406 q 712 333 693 364 q 731 261 731 303 q 704 169 731 207 q 638 106 678 130 q 553 71 598 82 q 468 60 507 60 q 340 73 400 60 q 236 117 280 86 q 168 199 193 147 q 143 327 143 250 "},"/":{"x_min":-16.671875,"x_max":480.5625,"ha":463,"o":"m -16 -19 l 56 -19 l 480 1014 l 409 1014 l -16 -19 "},"K":{"x_min":100,"x_max":919.015625,"ha":900,"o":"m 100 992 l 100 0 l 194 0 l 194 340 l 384 516 l 796 0 l 919 0 l 455 582 l 898 992 l 770 992 l 194 458 l 194 992 l 100 992 "},"7":{"x_min":71,"x_max":696,"ha":772,"o":"m 71 961 l 71 880 l 608 880 q 434 659 507 764 q 313 448 362 553 q 239 233 265 343 q 213 0 213 123 l 307 0 q 352 310 307 169 q 459 562 398 451 q 585 752 520 672 q 696 880 650 832 l 696 961 l 71 961 "},"d":{"x_min":53,"x_max":714,"ha":797,"o":"m 714 0 l 714 992 l 626 992 l 626 581 l 623 581 q 584 648 609 619 q 525 698 558 678 q 453 728 491 718 q 375 738 415 738 q 232 707 293 738 q 132 624 172 676 q 72 503 91 572 q 53 358 53 435 q 72 213 53 282 q 132 92 91 144 q 232 10 172 40 q 375 -19 293 -19 q 453 -8 414 -19 q 527 23 493 2 q 589 72 562 43 q 630 136 616 101 l 633 136 l 633 0 l 714 0 m 140 358 q 153 468 140 414 q 195 566 166 523 q 268 636 223 609 q 375 664 312 664 q 492 636 444 664 q 570 566 540 609 q 613 468 600 523 q 626 358 626 414 q 613 248 626 302 q 570 150 600 193 q 492 80 540 107 q 375 53 444 53 q 268 80 312 53 q 195 150 223 107 q 153 248 166 193 q 140 358 140 302 "},",":{"x_min":129,"x_max":252,"ha":387,"o":"m 252 147 l 135 147 l 135 0 l 193 0 q 191 -35 194 -15 q 179 -74 187 -55 q 158 -108 171 -93 q 129 -129 146 -123 l 129 -189 q 182 -161 159 -180 q 221 -116 205 -141 q 244 -60 236 -90 q 252 0 252 -30 l 252 147 "},"Y":{"x_min":-12.890625,"x_max":861.671875,"ha":848,"o":"m 376 408 l 376 0 l 470 0 l 470 408 l 861 992 l 749 992 l 424 489 l 98 992 l -12 992 l 376 408 "},"E":{"x_min":100,"x_max":791.234375,"ha":823,"o":"m 100 992 l 100 -1 l 791 -1 l 791 80 l 194 80 l 194 472 l 746 472 l 746 553 l 194 553 l 194 911 l 784 911 l 784 992 l 100 992 "},"y":{"x_min":3.171875,"x_max":640.671875,"ha":643,"o":"m 3 717 l 289 2 l 258 -78 q 237 -124 247 -103 q 214 -159 228 -144 q 181 -182 200 -174 q 133 -190 162 -190 q 103 -188 118 -190 q 74 -183 89 -186 l 74 -257 q 99 -263 85 -263 q 140 -263 114 -263 q 209 -255 182 -263 q 256 -230 236 -247 q 293 -183 276 -213 q 329 -108 310 -154 l 640 717 l 553 717 l 332 105 l 96 717 l 3 717 "},"\"":{"x_min":121,"x_max":393,"ha":514,"o":"m 305 992 l 305 654 l 393 654 l 393 992 l 305 992 m 121 992 l 121 654 l 208 654 l 208 992 l 121 992 "},"‹":{"x_min":74,"x_max":259,"ha":360,"o":"m 74 339 l 259 165 l 259 258 l 128 382 l 259 505 l 259 599 l 74 425 l 74 339 "},"˙":{"x_min":82,"x_max":176,"ha":257,"o":"m 82 841 l 176 841 l 176 981 l 82 981 l 82 841 "},"„":{"x_min":87,"x_max":425,"ha":514,"o":"m 211 147 l 94 147 l 94 0 l 152 0 q 150 -35 153 -15 q 138 -74 146 -55 q 117 -108 130 -93 q 87 -129 105 -123 l 87 -189 q 142 -161 119 -180 q 180 -116 165 -141 q 203 -60 195 -90 q 211 0 211 -30 l 211 147 m 425 147 l 308 147 l 308 0 l 366 0 q 364 -35 367 -15 q 352 -74 360 -55 q 331 -108 344 -93 q 301 -129 319 -123 l 301 -189 q 356 -161 333 -180 q 394 -116 379 -141 q 417 -60 409 -90 q 425 0 425 -30 l 425 147 "},"g":{"x_min":47,"x_max":688.5,"ha":772,"o":"m 688 58 l 688 717 l 601 717 l 601 593 l 598 593 q 563 648 586 622 q 511 695 540 675 q 446 726 481 715 q 370 738 411 738 q 232 709 292 738 q 131 631 172 680 q 68 516 90 582 q 47 376 47 450 q 65 232 47 300 q 122 115 83 165 q 223 36 162 65 q 370 8 284 8 q 508 48 449 8 q 598 156 568 88 l 601 156 l 601 58 q 547 -141 601 -71 q 370 -211 493 -211 q 299 -203 334 -211 q 236 -179 265 -195 q 187 -135 208 -162 q 160 -68 167 -108 l 75 -68 q 102 -166 75 -125 q 170 -233 129 -207 q 263 -272 211 -259 q 369 -285 314 -285 q 517 -261 457 -285 q 616 -193 578 -237 q 671 -84 653 -148 q 688 58 688 -20 m 370 82 q 265 106 309 82 q 191 170 220 130 q 148 261 162 209 q 134 366 134 312 q 147 475 134 422 q 190 570 160 529 q 263 638 219 612 q 370 664 308 664 q 477 637 433 664 q 548 568 520 611 q 588 472 576 525 q 601 366 601 419 q 586 261 601 312 q 543 170 572 209 q 470 106 513 130 q 370 82 427 82 "},"–":{"x_min":0,"x_max":694,"ha":694,"o":"m 0 342 l 694 342 l 694 423 l 0 423 l 0 342 "},"e":{"x_min":47,"x_max":687.28125,"ha":721,"o":"m 597 409 l 134 409 q 157 504 140 457 q 203 586 174 550 q 274 643 233 621 q 370 665 316 665 q 465 643 423 665 q 535 586 506 621 q 581 504 565 550 q 597 409 597 459 m 134 335 l 687 335 q 670 483 687 410 q 615 612 654 556 q 516 704 577 669 q 369 739 455 739 q 223 706 285 739 q 123 620 162 673 q 65 498 84 566 q 47 359 47 430 q 65 213 47 282 q 123 92 84 145 q 224 10 162 40 q 370 -19 285 -19 q 581 47 506 -19 q 683 237 655 114 l 595 237 q 520 103 574 153 q 370 53 466 53 q 263 79 308 53 q 190 146 219 106 q 147 237 160 186 q 134 335 134 287 "},"J":{"x_min":29,"x_max":594,"ha":694,"o":"m 500 992 l 500 316 q 491 199 500 248 q 462 119 483 150 q 404 73 440 88 q 311 59 367 59 q 198 87 237 59 q 142 156 159 116 q 126 241 126 196 q 126 318 126 285 l 29 318 q 40 191 29 252 q 81 83 51 130 q 166 8 112 37 q 305 -20 220 -20 q 440 -1 385 -20 q 529 52 495 16 q 578 144 563 88 q 594 276 594 199 l 594 992 l 500 992 "},"|":{"x_min":118,"x_max":192,"ha":309,"o":"m 118 1092 l 118 -296 l 192 -296 l 192 1092 l 118 1092 "},"˘":{"x_min":-67,"x_max":327.0625,"ha":256,"o":"m -16 1004 l -67 1004 q -14 872 -67 918 q 123 827 38 827 q 261 873 207 827 q 327 1004 315 920 l 272 1004 q 221 919 264 949 q 124 890 178 890 q 73 896 98 890 q 28 918 48 903 q -3 954 9 933 q -16 1004 -16 976 "},"^":{"x_min":61.109375,"x_max":772.21875,"ha":833,"o":"m 61 331 l 141 331 l 415 873 l 693 331 l 772 331 l 452 961 l 380 961 l 61 331 "},"q":{"x_min":53,"x_max":714,"ha":797,"o":"m 714 -264 l 714 717 l 633 717 l 633 581 l 630 581 q 589 645 616 616 q 527 694 562 674 q 453 726 493 715 q 375 738 414 738 q 232 707 293 738 q 132 624 172 676 q 72 503 91 572 q 53 358 53 435 q 72 213 53 282 q 132 92 91 144 q 232 10 172 40 q 375 -19 293 -19 q 453 -9 415 -19 q 525 19 491 0 q 584 68 558 39 q 623 136 609 97 l 626 136 l 626 -264 l 714 -264 m 140 358 q 153 468 140 414 q 195 566 166 523 q 268 636 223 609 q 375 664 312 664 q 492 636 444 664 q 570 566 540 609 q 613 468 600 523 q 626 358 626 414 q 613 248 626 302 q 570 150 600 193 q 492 80 540 107 q 375 53 444 53 q 268 80 312 53 q 195 150 223 107 q 153 248 166 193 q 140 358 140 302 "},"b":{"x_min":83,"x_max":744,"ha":797,"o":"m 83 992 l 83 0 l 163 0 l 163 136 l 166 136 q 265 21 196 61 q 421 -19 334 -19 q 564 10 503 -19 q 664 92 624 40 q 724 213 705 144 q 744 358 744 282 q 724 503 744 435 q 664 624 705 572 q 564 707 624 676 q 421 738 503 738 q 344 728 382 738 q 271 698 305 718 q 212 648 238 678 q 173 581 187 619 l 170 581 l 170 992 l 83 992 m 656 358 q 643 248 656 302 q 601 150 630 193 q 528 80 573 107 q 421 53 484 53 q 304 80 352 53 q 226 150 256 107 q 183 248 196 193 q 170 358 170 302 q 183 468 170 414 q 226 566 196 523 q 304 636 256 609 q 421 664 352 664 q 528 636 484 664 q 601 566 573 609 q 643 468 630 523 q 656 358 656 414 "},"D":{"x_min":100,"x_max":898,"ha":951,"o":"m 100 990 l 100 3 l 442 3 q 783 125 669 3 q 898 496 898 247 q 783 867 898 745 q 442 990 669 990 l 100 990 m 194 81 l 194 912 l 395 912 q 579 889 502 912 q 706 816 656 866 q 780 686 756 766 q 804 496 804 607 q 780 306 804 385 q 706 176 756 226 q 579 103 656 126 q 395 81 502 81 l 194 81 "},"z":{"x_min":21,"x_max":620,"ha":644,"o":"m 126 74 l 600 654 l 600 717 l 53 717 l 53 643 l 488 643 l 21 71 l 21 0 l 620 0 l 620 74 l 126 74 "},"ˆ":{"x_min":-76.390625,"x_max":334.71875,"ha":257,"o":"m 334 817 l 176 1013 l 80 1013 l -76 817 l 2 817 l 125 958 l 244 817 l 334 817 "},"w":{"x_min":11.109375,"x_max":1018.0625,"ha":1029,"o":"m 11 717 l 241 0 l 337 0 l 512 603 l 515 603 l 691 0 l 787 0 l 1018 717 l 925 717 l 741 103 l 738 103 l 563 717 l 465 717 l 290 103 l 287 103 l 104 717 l 11 717 "},"$":{"x_min":43,"x_max":732,"ha":772,"o":"m 128 316 l 43 316 q 118 77 43 157 q 357 -18 194 -3 l 357 -138 l 411 -138 l 411 -20 q 529 -2 472 -20 q 632 49 587 14 q 704 136 677 84 q 732 256 732 188 q 704 378 732 330 q 631 457 676 425 q 528 507 586 489 q 411 538 470 526 l 411 939 q 559 877 502 939 q 617 711 617 815 l 706 711 q 683 834 706 779 q 619 930 660 890 q 525 991 578 969 q 411 1013 472 1013 l 411 1121 l 357 1121 l 357 1013 q 243 994 297 1013 q 150 939 190 975 q 87 854 110 904 q 65 741 65 804 q 88 621 65 669 q 151 542 112 573 q 245 493 191 510 q 357 463 298 475 l 357 52 q 187 129 246 64 q 128 316 128 193 m 357 939 l 357 551 q 281 571 318 560 q 215 602 244 583 q 169 652 187 621 q 152 731 152 683 q 168 825 152 786 q 213 890 184 865 q 278 927 241 915 q 357 939 315 939 m 411 52 l 411 452 q 493 428 451 442 q 568 393 534 414 q 622 338 601 371 q 644 255 644 305 q 624 162 644 200 q 571 99 604 124 q 497 63 538 74 q 411 52 455 52 "},"\\":{"x_min":-16.671875,"x_max":480.5625,"ha":463,"o":"m 405 -19 l 480 -19 l 52 1014 l -16 1014 l 405 -19 "},"’":{"x_min":131,"x_max":255,"ha":387,"o":"m 255 992 l 138 992 l 138 845 l 196 845 q 194 808 197 828 q 182 768 190 788 q 161 734 174 749 q 131 714 149 719 l 131 654 q 186 682 163 662 q 224 727 209 701 q 247 783 239 753 q 255 843 255 812 l 255 992 "},"~":{"x_min":95.828125,"x_max":737.5,"ha":833,"o":"m 737 387 l 687 437 q 635 371 663 401 q 565 342 606 342 q 504 355 538 342 q 429 387 469 369 q 349 418 390 404 q 269 432 308 432 q 207 421 234 432 q 159 394 180 411 q 122 356 137 377 q 95 312 106 334 l 145 262 q 189 328 162 298 q 262 358 216 358 q 338 344 302 358 q 411 314 375 330 q 484 281 447 295 q 563 268 522 268 q 621 278 595 268 q 668 305 647 288 q 705 343 688 322 q 737 387 722 365 "},"-":{"x_min":83,"x_max":430,"ha":513,"o":"m 83 342 l 430 342 l 430 423 l 83 423 l 83 342 "},"Q":{"x_min":47,"x_max":982,"ha":1029,"o":"m 926 -62 l 973 -3 l 832 103 q 944 277 907 175 q 982 496 982 379 q 952 692 982 599 q 865 857 923 785 q 719 971 806 929 q 515 1014 631 1014 q 310 971 398 1014 q 163 857 222 929 q 76 692 105 785 q 47 496 47 599 q 76 300 47 393 q 163 136 105 207 q 310 23 222 65 q 515 -19 398 -19 q 772 53 671 -19 l 926 -62 m 761 157 l 616 267 l 568 207 l 698 108 q 515 60 620 60 q 345 97 416 60 q 229 196 274 135 q 162 337 184 258 q 141 496 141 415 q 162 656 141 578 q 229 796 184 734 q 345 895 274 857 q 515 933 416 933 q 684 895 613 933 q 799 796 754 857 q 866 656 844 734 q 888 496 888 578 q 858 310 888 400 q 761 157 828 219 "},"M":{"x_min":97,"x_max":1059,"ha":1156,"o":"m 97 992 l 97 0 l 191 0 l 191 858 l 193 858 l 534 0 l 623 0 l 962 858 l 965 858 l 965 0 l 1059 0 l 1059 992 l 920 992 l 578 122 l 235 992 l 97 992 "},"C":{"x_min":53,"x_max":933.109375,"ha":978,"o":"m 824 693 l 919 693 q 872 830 909 770 q 781 931 835 890 q 658 993 726 972 q 520 1014 591 1014 q 316 971 404 1014 q 169 857 227 929 q 82 692 111 785 q 53 496 53 599 q 82 300 53 393 q 169 136 111 207 q 316 23 227 65 q 520 -19 404 -19 q 679 8 608 -19 q 804 87 751 36 q 890 212 856 139 q 933 378 923 286 l 838 378 q 806 253 831 311 q 741 153 781 196 q 645 84 701 109 q 520 60 590 60 q 351 97 422 60 q 235 196 280 135 q 168 337 190 258 q 147 496 147 415 q 168 656 147 578 q 235 796 190 734 q 351 895 280 857 q 520 933 422 933 q 624 917 574 933 q 714 870 673 901 q 783 794 755 840 q 824 693 812 749 "},"[":{"x_min":106,"x_max":329.609375,"ha":335,"o":"m 106 -264 l 329 -264 l 329 -190 l 193 -190 l 193 939 l 329 939 l 329 1013 l 106 1013 l 106 -264 "},"L":{"x_min":100,"x_max":749.5625,"ha":745,"o":"m 100 992 l 100 -1 l 749 -1 l 749 80 l 194 80 l 194 992 l 100 992 "},"!":{"x_min":110,"x_max":227,"ha":335,"o":"m 110 0 l 227 0 l 227 147 l 110 147 l 110 0 m 131 695 l 131 247 l 205 247 l 205 695 l 205 992 l 131 992 l 131 695 "},"\u001d":{"x_min":0,"x_max":0,"ha":0}," ":{"x_min":0,"x_max":0,"ha":386},"{":{"x_min":115,"x_max":407,"ha":463,"o":"m 337 -264 l 407 -264 l 407 -190 l 379 -190 q 343 -178 358 -190 q 319 -146 328 -166 q 306 -101 310 -127 q 302 -47 302 -74 l 302 147 q 289 245 302 204 q 260 313 277 286 q 228 354 244 340 q 205 372 212 368 l 205 375 q 228 393 212 379 q 260 434 244 407 q 289 502 277 461 q 302 600 302 543 l 302 795 q 306 849 302 823 q 319 895 310 875 q 343 927 328 915 q 379 939 358 939 l 407 939 l 407 1013 l 337 1013 q 247 965 279 1013 q 215 839 215 918 l 215 632 q 210 550 215 590 q 195 478 206 509 q 164 428 184 447 q 115 410 145 410 l 115 336 q 164 317 145 336 q 195 267 184 298 q 210 195 206 236 q 215 113 215 155 l 215 -90 q 247 -216 215 -169 q 337 -264 279 -264 "},"X":{"x_min":-15.28125,"x_max":811.109375,"ha":797,"o":"m 4 992 l 340 511 l -15 0 l 90 0 l 395 437 l 697 0 l 811 0 l 452 508 l 791 992 l 686 992 l 395 576 l 115 992 l 4 992 "},"P":{"x_min":100,"x_max":835,"ha":875,"o":"m 194 505 l 194 911 l 519 911 q 679 860 618 911 q 741 707 741 810 q 679 555 741 605 q 519 505 618 505 l 194 505 m 100 992 l 100 0 l 194 0 l 194 424 l 540 424 q 661 442 607 424 q 754 498 715 461 q 814 588 793 535 q 835 708 835 641 q 814 827 835 774 q 754 917 793 880 q 661 973 715 954 q 540 992 607 992 l 100 992 "},"%":{"x_min":96,"x_max":1148,"ha":1236,"o":"m 317 982 q 216 961 258 982 q 147 906 173 941 q 108 822 121 870 q 96 719 96 774 q 108 615 96 663 q 147 531 121 567 q 216 476 173 496 q 317 456 258 456 q 417 476 375 456 q 486 531 460 496 q 525 615 512 567 q 538 719 538 663 q 525 822 538 774 q 486 906 512 870 q 417 961 460 941 q 317 982 375 982 m 927 442 q 998 423 970 442 q 1043 374 1026 404 q 1067 309 1060 344 q 1074 240 1074 273 q 1067 172 1074 207 q 1043 108 1060 137 q 998 60 1026 79 q 927 42 970 42 q 854 60 882 42 q 809 108 825 79 q 786 172 792 137 q 780 240 780 207 q 786 309 780 273 q 809 374 792 344 q 854 423 825 404 q 927 442 882 442 m 927 505 q 826 484 868 505 q 757 429 783 464 q 718 345 731 393 q 706 242 706 297 q 718 138 706 186 q 757 55 731 90 q 826 0 783 19 q 927 -19 868 -19 q 1027 0 985 -19 q 1096 55 1070 19 q 1135 138 1122 90 q 1148 242 1148 186 q 1135 345 1148 297 q 1096 429 1122 393 q 1027 484 1070 464 q 927 505 985 505 m 893 1008 l 264 -45 l 330 -45 l 958 1008 l 893 1008 m 317 919 q 388 900 359 919 q 433 851 416 881 q 457 786 450 821 q 464 717 464 750 q 457 649 464 684 q 433 585 450 614 q 388 537 416 556 q 317 519 359 519 q 244 537 272 519 q 199 585 215 556 q 176 649 182 614 q 170 717 170 684 q 176 786 170 750 q 199 851 182 821 q 244 900 215 881 q 317 919 272 919 "},"#":{"x_min":49,"x_max":730,"ha":773,"o":"m 310 589 l 506 589 l 475 373 l 279 373 l 310 589 m 691 310 l 691 373 l 545 373 l 575 589 l 730 589 l 730 652 l 584 652 l 627 960 l 557 960 l 514 652 l 318 652 l 361 960 l 292 960 l 249 652 l 88 652 l 88 589 l 240 589 l 210 373 l 49 373 l 49 310 l 201 310 l 158 0 l 228 0 l 271 310 l 467 310 l 424 0 l 493 0 l 536 310 l 691 310 "},"_":{"x_min":0,"x_max":694,"ha":694,"o":"m 0 -172 l 694 -172 l 694 -102 l 0 -102 l 0 -172 "},"+":{"x_min":68,"x_max":767,"ha":834,"o":"m 380 699 l 380 387 l 68 387 l 68 313 l 380 313 l 380 0 l 454 0 l 454 313 l 767 313 l 767 387 l 454 387 l 454 699 l 380 699 "},"":{"x_min":71,"x_max":1040.328125,"ha":1097,"o":"m 566 817 q 470 838 544 817 q 347 859 398 859 q 148 758 227 859 q 71 498 71 657 q 173 148 71 326 q 381 -31 276 -31 q 473 -7 415 -31 q 573 15 527 15 q 677 -5 617 15 q 776 -28 738 -28 q 955 106 866 -28 q 1005 195 984 151 q 1040 280 1026 238 q 930 368 977 299 q 882 523 882 437 q 927 666 882 602 q 1007 750 952 703 q 970 789 988 772 q 934 819 952 805 q 786 864 869 864 q 665 840 736 864 q 566 817 594 817 m 779 1097 q 778 1110 779 1103 q 774 1126 777 1116 q 599 1023 651 1098 q 547 845 547 947 q 617 856 591 849 q 694 905 653 868 q 758 1001 737 950 q 779 1097 779 1053 "},"‚":{"x_min":131,"x_max":255,"ha":387,"o":"m 255 147 l 138 147 l 138 0 l 196 0 q 194 -35 197 -15 q 182 -74 190 -55 q 161 -108 174 -93 q 131 -129 149 -123 l 131 -189 q 186 -161 163 -180 q 224 -116 209 -141 q 247 -60 239 -90 q 255 0 255 -30 l 255 147 "},")":{"x_min":-0.390625,"x_max":263.5,"ha":334,"o":"m 67 1013 l 0 1013 q 69 872 37 946 q 126 721 102 799 q 162 565 149 644 q 176 409 176 486 q 133 54 176 223 q 0 -264 91 -113 l 67 -264 q 211 38 159 -120 q 263 377 263 198 q 250 550 263 468 q 212 709 237 632 q 150 861 187 786 q 67 1013 113 936 "},"'":{"x_min":150,"x_max":237.5,"ha":386,"o":"m 150 992 l 150 654 l 237 654 l 237 992 l 150 992 "},"}":{"x_min":56,"x_max":348,"ha":463,"o":"m 125 1013 l 56 1013 l 56 939 l 83 939 q 119 927 104 939 q 142 895 133 915 q 155 849 151 875 q 160 796 160 823 l 160 600 q 172 502 160 543 q 201 434 184 461 q 234 393 218 407 q 257 375 250 379 l 257 372 q 234 354 250 368 q 201 313 218 340 q 172 245 184 286 q 160 147 160 204 l 160 -46 q 155 -101 160 -74 q 142 -146 151 -127 q 119 -178 133 -166 q 83 -190 104 -190 l 56 -190 l 56 -264 l 125 -264 q 215 -216 183 -264 q 247 -89 247 -169 l 247 115 q 251 197 247 157 q 267 269 255 237 q 297 319 278 300 q 348 338 317 338 l 348 412 q 297 430 317 412 q 267 480 278 449 q 251 552 255 511 q 247 633 247 592 l 247 839 q 215 965 247 918 q 125 1013 183 1013 "},"‰":{"x_min":90,"x_max":1458,"ha":1543,"o":"m 297 919 q 364 903 338 919 q 404 863 389 888 q 424 808 418 838 q 430 747 430 777 q 424 685 430 716 q 404 630 418 655 q 364 590 389 605 q 297 575 338 575 q 229 590 255 575 q 188 630 202 605 q 168 685 173 655 q 164 747 164 716 q 168 808 164 777 q 188 863 173 838 q 229 903 202 888 q 297 919 255 919 m 296 982 q 201 963 241 982 q 137 914 162 945 q 101 840 112 883 q 90 747 90 797 q 101 653 90 696 q 137 579 112 610 q 201 530 162 548 q 296 512 241 512 q 392 530 353 512 q 456 579 431 548 q 492 653 481 610 q 504 747 504 696 q 492 840 504 797 q 456 914 481 883 q 392 963 431 945 q 296 982 353 982 m 1251 387 q 1318 371 1292 387 q 1358 331 1343 356 q 1378 275 1372 306 q 1384 214 1384 245 q 1378 153 1384 183 q 1358 97 1372 122 q 1318 57 1343 72 q 1251 42 1292 42 q 1183 57 1209 42 q 1142 97 1156 72 q 1122 153 1127 122 q 1118 214 1118 183 q 1122 275 1118 245 q 1142 331 1127 306 q 1183 371 1156 356 q 1251 387 1209 387 m 1251 450 q 1155 431 1195 450 q 1091 382 1116 413 q 1055 308 1066 351 q 1044 214 1044 264 q 1055 121 1044 164 q 1091 47 1066 78 q 1155 -1 1116 15 q 1251 -19 1195 -19 q 1346 -1 1307 -19 q 1410 47 1385 15 q 1446 121 1435 78 q 1458 214 1458 164 q 1446 308 1458 264 q 1410 382 1435 351 q 1346 431 1385 413 q 1251 450 1307 450 m 759 387 q 826 371 801 387 q 867 331 852 356 q 887 275 881 306 q 893 214 893 245 q 887 153 893 183 q 867 97 881 122 q 826 57 852 72 q 759 42 801 42 q 691 57 717 42 q 650 97 664 72 q 630 153 635 122 q 626 214 626 183 q 630 275 626 245 q 650 331 635 306 q 691 371 664 356 q 759 387 717 387 m 759 450 q 664 431 703 450 q 599 382 624 413 q 563 308 574 351 q 552 214 552 264 q 563 121 552 164 q 599 47 574 78 q 664 -1 624 15 q 759 -19 703 -19 q 855 -1 816 -19 q 919 47 894 15 q 955 121 944 78 q 967 214 967 164 q 955 308 967 264 q 919 382 944 351 q 855 431 894 413 q 759 450 816 450 m 808 1008 l 179 -45 l 245 -45 l 873 1008 l 808 1008 "},"˛":{"x_min":51,"x_max":316.28125,"ha":257,"o":"m 262 2 l 209 2 q 125 -56 156 -28 q 77 -109 94 -85 q 55 -151 60 -133 q 51 -178 51 -168 q 80 -260 51 -228 q 184 -292 109 -292 q 253 -271 220 -292 q 316 -199 285 -250 l 276 -181 q 245 -219 264 -200 q 199 -238 226 -238 q 157 -222 176 -238 q 138 -172 138 -206 q 143 -136 138 -154 q 162 -97 148 -118 q 200 -51 176 -76 q 262 2 224 -26 "},"a":{"x_min":44,"x_max":708,"ha":721,"o":"m 76 498 l 163 498 q 216 625 163 585 q 353 665 269 665 q 426 658 392 665 q 486 635 460 652 q 527 590 512 619 q 541 517 541 561 q 534 470 541 488 q 512 441 526 451 q 477 426 498 431 q 429 419 456 422 q 289 402 358 411 q 165 371 220 393 q 77 306 110 349 q 44 189 44 264 q 62 95 44 135 q 114 30 81 56 q 190 -7 146 4 q 284 -19 234 -19 q 375 -9 337 -19 q 443 18 413 0 q 497 63 473 36 q 545 126 522 90 l 548 126 q 552 74 548 97 q 566 34 555 51 q 597 9 577 18 q 651 0 617 0 q 680 1 669 0 q 708 5 692 2 l 708 79 q 680 74 695 74 q 628 127 628 74 l 628 507 q 604 625 628 580 q 543 695 581 670 q 458 729 505 720 q 363 739 410 739 q 249 725 300 739 q 159 681 197 711 q 98 606 120 652 q 76 498 76 560 m 541 392 l 541 278 q 521 183 541 225 q 467 112 501 142 q 387 68 433 83 q 291 53 341 53 q 231 62 260 53 q 180 91 202 72 q 144 135 157 110 q 131 194 131 161 q 162 276 131 247 q 242 319 194 304 q 350 342 291 335 q 465 360 409 350 q 506 369 483 362 q 538 392 530 376 l 541 392 "},"T":{"x_min":-5,"x_max":780,"ha":773,"o":"m -5 992 l -5 911 l 340 911 l 340 0 l 434 0 l 434 911 l 780 911 l 780 992 l -5 992 "},"—":{"x_min":181,"x_max":1209,"ha":1390,"o":"m 181 342 l 1209 342 l 1209 423 l 181 423 l 181 342 "},"=":{"x_min":68,"x_max":767,"ha":834,"o":"m 767 178 l 767 252 l 68 252 l 68 178 l 767 178 m 767 452 l 767 526 l 68 526 l 68 452 l 767 452 "},"N":{"x_min":99,"x_max":879,"ha":978,"o":"m 99 992 l 99 0 l 193 0 l 193 839 l 195 839 l 773 0 l 879 0 l 879 992 l 785 992 l 785 153 l 782 153 l 204 992 l 99 992 "},"˚":{"x_min":-18,"x_max":278,"ha":257,"o":"m 35 940 q 62 1007 35 980 q 129 1035 89 1035 q 196 1007 169 1035 q 224 940 224 980 q 196 873 224 900 q 129 846 169 846 q 62 873 89 846 q 35 940 35 900 m -18 940 q -6 882 -18 909 q 24 835 4 855 q 71 803 44 815 q 129 792 98 792 q 186 803 159 792 q 234 835 214 815 q 266 882 254 855 q 278 940 278 909 q 266 998 278 971 q 234 1045 254 1025 q 186 1077 214 1065 q 129 1089 159 1089 q 71 1077 98 1089 q 24 1045 44 1065 q -6 998 4 1025 q -18 940 -18 971 "},"⁄":{"x_min":-229.171875,"x_max":463.890625,"ha":232,"o":"m 398 1007 l -229 -46 l -162 -46 l 463 1007 l 398 1007 "},"2":{"x_min":50,"x_max":690,"ha":772,"o":"m 690 0 l 690 81 l 149 81 q 191 170 158 129 q 268 246 224 211 q 359 309 312 281 q 441 361 406 338 q 533 427 490 392 q 611 504 577 463 q 665 596 645 546 q 686 707 686 646 q 663 826 686 775 q 599 912 640 878 q 503 963 558 946 q 384 981 448 981 q 246 955 305 981 q 148 883 187 929 q 90 775 109 838 q 72 637 72 711 l 159 637 q 171 739 159 691 q 209 825 183 787 q 278 884 235 862 q 380 907 320 907 q 464 893 424 907 q 533 854 504 880 q 581 792 563 829 q 598 708 598 755 q 578 608 598 650 q 517 525 558 565 q 426 449 477 485 q 324 380 376 414 q 224 309 273 346 q 136 228 175 272 q 73 128 97 183 q 50 0 50 72 l 690 0 "},"j":{"x_min":-40,"x_max":172.5,"ha":257,"o":"m 85 992 l 85 852 l 172 852 l 172 992 l 85 992 m 85 717 l 85 -85 q 71 -160 85 -130 q 5 -190 57 -190 q -16 -192 -3 -192 q -40 -188 -28 -192 l -40 -261 q -10 -262 -24 -261 q 19 -264 4 -264 q 95 -248 65 -264 q 142 -204 125 -232 q 166 -141 160 -177 q 172 -65 172 -105 l 172 717 l 85 717 "},"\t":{"x_min":0,"x_max":0,"ha":386},"Z":{"x_min":7,"x_max":779,"ha":797,"o":"m 51 992 l 51 911 l 659 911 l 7 82 l 7 -1 l 779 -1 l 779 80 l 112 80 l 765 908 l 765 992 l 51 992 "},"u":{"x_min":82,"x_max":664,"ha":746,"o":"m 664 1 l 664 718 l 576 718 l 576 341 q 563 234 576 287 q 524 142 551 182 q 458 77 498 101 q 360 53 417 53 q 213 103 256 53 q 171 250 171 153 l 171 718 l 82 718 l 82 252 q 95 138 82 188 q 139 53 109 88 q 217 0 169 18 q 333 -19 265 -19 q 479 19 414 -19 q 580 130 545 57 l 583 130 l 583 1 l 664 1 "},"1":{"x_min":135.046875,"x_max":479.5,"ha":773,"o":"m 135 785 l 135 722 l 392 722 l 392 0 l 479 0 l 479 973 l 408 973 q 376 868 398 906 q 319 813 353 831 q 238 789 285 794 q 135 785 192 785 "},"›":{"x_min":101,"x_max":286,"ha":360,"o":"m 101 258 l 101 165 l 286 339 l 286 425 l 101 599 l 101 505 l 231 382 l 101 258 "},"˜":{"x_min":-89.171875,"x_max":345.546875,"ha":257,"o":"m 345 984 l 292 984 q 268 936 284 956 q 220 917 252 917 q 180 926 201 917 q 137 948 160 936 q 88 969 115 959 q 33 979 62 979 q -14 967 6 979 q -52 936 -36 955 q -77 893 -68 917 q -89 845 -86 870 l -35 845 q -14 897 -35 879 q 37 916 5 916 q 76 906 55 916 q 120 884 96 896 q 170 861 144 871 q 224 852 196 852 q 273 863 252 852 q 308 894 294 875 q 332 936 323 913 q 345 984 341 960 "},"k":{"x_min":83,"x_max":705.234375,"ha":694,"o":"m 83 992 l 83 0 l 170 0 l 170 272 l 312 390 l 595 0 l 705 0 l 378 451 l 684 717 l 567 717 l 170 369 l 170 992 l 83 992 "},"ˇ":{"x_min":-76.390625,"x_max":334.71875,"ha":257,"o":"m -76 1013 l 80 817 l 176 817 l 334 1013 l 254 1013 l 131 871 l 12 1013 l -76 1013 "},"€":{"x_min":20.890625,"x_max":773.21875,"ha":772,"o":"m 735 801 l 773 883 q 515 990 687 990 q 244 876 349 990 q 116 604 147 774 l 45 604 l 20 541 l 109 541 q 107 511 107 524 q 107 486 107 497 l 107 471 q 108 459 107 463 l 47 459 l 20 396 l 112 396 q 226 102 133 212 q 506 -19 331 -19 q 751 69 645 -19 l 751 176 q 642 88 691 116 q 509 57 581 57 q 290 161 373 57 q 202 396 220 251 l 594 396 l 620 459 l 198 459 q 197 470 197 463 l 197 481 q 201 541 197 506 l 646 541 l 671 604 l 209 604 q 305 817 234 737 q 513 911 385 911 q 735 801 644 911 "},"<":{"x_min":64,"x_max":770,"ha":834,"o":"m 770 -9 l 770 65 l 150 351 l 770 637 l 770 714 l 64 389 l 64 314 l 770 -9 "},"t":{"x_min":10,"x_max":368,"ha":411,"o":"m 222 717 l 222 932 l 135 932 l 135 717 l 10 717 l 10 643 l 134 643 l 134 152 q 168 27 134 60 q 290 -6 203 -6 q 329 -6 310 -6 q 368 -6 348 -6 l 368 69 q 293 66 330 66 q 234 90 246 66 q 223 158 223 115 l 223 643 l 368 643 l 368 717 l 222 717 "},"W":{"x_min":0,"x_max":1255.5625,"ha":1260,"o":"m 0 992 l 275 0 l 377 0 l 627 888 l 630 888 l 881 0 l 981 0 l 1255 992 l 1161 992 l 934 123 l 931 123 l 688 992 l 570 992 l 329 123 l 326 123 l 101 992 l 0 992 "},"v":{"x_min":2.78125,"x_max":640.28125,"ha":643,"o":"m 2 717 l 279 0 l 372 0 l 640 717 l 550 717 l 327 88 l 325 88 l 100 717 l 2 717 "},">":{"x_min":64,"x_max":770,"ha":834,"o":"m 683 351 l 64 65 l 64 -9 l 770 314 l 770 389 l 64 714 l 64 637 l 683 351 "},"s":{"x_min":43,"x_max":625,"ha":668,"o":"m 511 508 l 598 508 q 577 609 598 566 q 521 681 556 652 q 439 725 485 711 q 338 739 392 739 q 242 727 290 739 q 155 693 194 716 q 92 630 116 669 q 68 537 68 591 q 83 460 68 491 q 125 407 98 428 q 188 371 152 385 q 267 345 224 356 l 380 320 q 438 303 409 313 q 488 279 466 294 q 524 243 511 264 q 537 189 537 221 q 518 126 537 152 q 470 83 499 100 q 406 60 440 67 q 340 53 372 53 q 192 98 251 53 q 133 233 133 143 l 43 233 q 132 40 54 100 q 337 -19 211 -19 q 438 -7 387 -19 q 531 28 490 3 q 598 95 572 54 q 625 195 625 136 q 606 277 625 242 q 560 335 588 312 q 495 373 531 359 q 420 394 458 388 l 304 420 q 255 435 281 426 q 206 458 229 444 q 170 492 184 471 q 155 541 155 512 q 170 599 155 576 q 211 637 186 623 q 265 658 236 652 q 324 665 295 665 q 395 655 362 665 q 454 627 429 646 q 495 578 480 608 q 511 508 511 548 "},"B":{"x_min":100,"x_max":875,"ha":926,"o":"m 194 557 l 194 911 l 519 911 q 743 724 743 911 q 729 659 743 690 q 687 606 715 629 q 617 570 659 583 q 519 557 576 557 l 194 557 m 100 992 l 100 -1 l 519 -1 q 657 13 600 -1 q 754 51 715 28 q 818 104 794 74 q 854 166 841 135 q 870 227 866 197 q 875 281 875 257 q 818 444 875 378 q 665 523 761 510 l 665 526 q 735 555 704 534 q 789 606 766 576 q 824 672 812 636 q 837 748 837 709 q 810 864 837 818 q 740 939 784 911 q 639 980 696 968 q 519 992 581 992 l 100 992 m 194 80 l 194 476 l 519 476 q 713 428 646 476 q 781 284 781 380 q 760 184 781 224 q 703 121 739 145 q 619 89 666 98 q 519 80 572 80 l 194 80 "},"…":{"x_min":174,"x_max":1215,"ha":1389,"o":"m 1098 0 l 1215 0 l 1215 147 l 1098 147 l 1098 0 m 636 0 l 753 0 l 753 147 l 636 147 l 636 0 m 174 0 l 291 0 l 291 147 l 174 147 l 174 0 "},"?":{"x_min":75,"x_max":672,"ha":746,"o":"m 321 147 l 321 0 l 438 0 l 438 147 l 321 147 m 75 687 l 161 687 q 174 786 161 741 q 216 866 188 832 q 287 919 244 900 q 385 939 330 939 q 462 925 426 939 q 525 886 498 911 q 568 828 552 862 q 584 751 584 793 q 558 653 584 697 q 494 572 533 608 q 418 500 450 532 q 368 433 387 468 q 341 355 349 398 q 333 248 333 312 l 422 248 q 426 346 422 312 q 444 404 430 380 q 482 452 457 427 q 551 519 508 476 q 637 624 603 570 q 672 756 672 678 q 649 864 672 817 q 588 944 627 911 q 499 995 549 978 q 390 1013 448 1013 q 256 989 315 1013 q 157 923 198 965 q 95 820 116 881 q 75 687 75 760 "},"H":{"x_min":100,"x_max":878,"ha":978,"o":"m 100 992 l 100 0 l 194 0 l 194 481 l 784 481 l 784 0 l 878 0 l 878 992 l 784 992 l 784 562 l 194 562 l 194 992 l 100 992 "},"c":{"x_min":47,"x_max":681.734375,"ha":721,"o":"m 588 492 l 676 492 q 581 677 660 616 q 385 739 501 739 q 240 708 303 739 q 134 626 177 677 q 69 506 91 574 q 47 359 47 437 q 69 212 47 281 q 134 92 91 143 q 240 10 177 40 q 385 -19 303 -19 q 585 54 508 -19 q 681 258 663 127 l 594 258 q 572 175 590 213 q 526 111 553 138 q 462 68 498 83 q 385 53 426 53 q 276 79 323 53 q 197 149 228 106 q 150 247 166 192 q 134 359 134 302 q 150 471 134 416 q 197 569 166 525 q 276 638 228 612 q 385 665 323 665 q 522 618 473 665 q 588 492 570 572 "},"&":{"x_min":54,"x_max":860.828125,"ha":848,"o":"m 394 918 q 487 885 448 918 q 526 790 526 852 q 512 724 526 754 q 476 670 498 694 q 426 626 453 645 q 373 590 399 607 q 337 634 356 609 q 301 684 317 658 q 273 736 284 709 q 262 790 262 763 q 301 885 262 852 q 394 918 340 918 m 645 128 l 751 -1 l 860 -1 l 694 201 q 740 331 728 265 q 752 439 752 397 l 665 439 q 659 345 665 381 q 635 272 653 308 l 419 533 q 491 582 456 557 q 553 639 526 608 q 596 707 580 669 q 613 790 613 744 q 596 873 613 836 q 548 936 578 910 q 479 977 519 962 q 394 992 440 992 q 308 977 348 992 q 239 936 269 962 q 192 873 209 909 q 175 790 175 836 q 186 722 175 754 q 215 661 198 690 q 254 604 233 631 q 297 551 276 577 q 212 500 255 529 q 133 434 169 470 q 76 354 98 398 q 54 256 54 309 q 76 137 54 188 q 140 50 99 85 q 235 -1 180 16 q 353 -20 290 -20 q 516 20 441 -20 q 645 128 591 60 m 344 494 l 591 194 q 490 93 549 134 q 356 52 431 52 q 276 66 315 52 q 207 106 237 80 q 159 169 177 132 q 141 248 141 205 q 159 329 141 292 q 206 397 177 366 q 272 451 235 427 q 344 494 308 475 "},"˝":{"x_min":-44.4375,"x_max":416.671875,"ha":257,"o":"m 170 817 l 241 817 l 416 1013 l 311 1013 l 170 817 m -44 817 l 25 817 l 200 1013 l 94 1013 l -44 817 "},"I":{"x_min":107,"x_max":201,"ha":308,"o":"m 107 992 l 107 0 l 201 0 l 201 992 l 107 992 "},"•":{"x_min":100,"x_max":596,"ha":695,"o":"m 100 495 q 119 399 100 444 q 172 319 138 353 q 250 266 205 285 q 347 247 295 247 q 443 266 398 247 q 523 319 489 285 q 576 399 557 353 q 596 495 596 444 q 576 592 596 547 q 523 670 557 637 q 443 723 489 704 q 347 743 398 743 q 250 723 295 743 q 172 670 205 704 q 119 592 138 637 q 100 495 100 547 "},"ə":{"x_min":43.0625,"x_max":687.5,"ha":735,"o":"m 364 -18 q 216 16 278 -18 q 116 107 155 51 q 60 237 77 164 q 43 385 43 309 l 600 385 q 586 482 600 432 q 544 573 573 533 q 470 640 515 614 q 363 667 426 667 q 213 617 267 667 q 138 484 159 567 l 51 484 q 153 672 79 606 q 363 739 227 739 q 510 709 448 739 q 611 627 572 679 q 668 506 650 575 q 687 361 687 437 q 668 222 687 290 q 611 100 650 154 q 510 14 572 47 q 364 -18 449 -18 m 363 56 q 459 77 417 56 q 530 134 501 98 q 577 216 559 169 q 600 311 594 262 l 136 311 q 152 215 136 261 q 197 134 168 169 q 268 77 226 98 q 363 56 310 56 "},"G":{"x_min":53,"x_max":947,"ha":1029,"o":"m 947 0 l 947 505 l 526 505 l 526 424 l 863 424 q 841 278 863 344 q 774 162 819 211 q 666 87 730 114 q 519 60 601 60 q 350 97 421 60 q 235 196 280 135 q 168 337 189 258 q 147 496 147 415 q 168 656 147 578 q 235 796 190 734 q 351 895 280 857 q 520 933 422 933 q 648 910 591 933 q 746 850 705 887 q 811 770 787 814 q 840 684 835 727 l 934 684 q 883 827 920 766 q 791 930 845 888 q 667 993 737 972 q 520 1014 598 1014 q 316 971 404 1014 q 169 857 227 929 q 82 692 111 785 q 53 496 53 599 q 82 300 53 393 q 169 136 111 207 q 316 23 227 65 q 520 -19 404 -19 q 625 -7 574 -19 q 720 27 676 3 q 801 89 765 51 q 863 181 838 128 l 872 181 l 872 0 l 947 0 "},"`":{"x_min":-41.671875,"x_max":211.109375,"ha":257,"o":"m -41 1013 l 140 817 l 211 817 l 65 1013 l -41 1013 "},"(":{"x_min":71,"x_max":336.28125,"ha":335,"o":"m 266 -264 l 336 -264 q 263 -126 296 -200 q 207 25 230 -52 q 171 183 183 104 q 158 337 158 262 q 200 693 158 523 q 336 1013 243 862 l 266 1013 q 123 709 175 869 q 71 369 71 548 q 84 196 71 277 q 122 38 97 115 q 184 -112 147 -37 q 266 -264 221 -187 "},"U":{"x_min":90,"x_max":861,"ha":951,"o":"m 90 992 l 90 356 q 111 211 90 280 q 179 91 133 142 q 299 9 226 39 q 474 -20 372 -20 q 651 9 579 -20 q 771 91 724 39 q 839 211 817 142 q 861 356 861 280 l 861 992 l 767 992 l 767 377 q 747 230 767 291 q 690 132 728 170 q 598 76 652 93 q 474 59 544 59 q 352 76 406 59 q 260 132 298 93 q 203 230 222 170 q 184 377 184 291 l 184 992 l 90 992 "},"◊":{"x_min":133.328125,"x_max":700,"ha":833,"o":"m 133 484 l 369 1018 l 462 1018 l 700 484 l 462 -49 l 369 -49 l 133 484 m 604 484 l 415 920 l 229 484 l 415 48 l 604 484 "},"F":{"x_min":100,"x_max":728.734375,"ha":745,"o":"m 100 992 l 100 0 l 194 0 l 194 472 l 669 472 l 669 553 l 194 553 l 194 911 l 728 911 l 728 992 l 100 992 "},"r":{"x_min":83,"x_max":437.171875,"ha":437,"o":"m 83 717 l 83 0 l 170 0 l 170 382 q 189 486 170 439 q 244 568 209 534 q 328 621 280 602 q 437 640 377 640 l 437 728 q 269 681 339 728 q 166 549 199 635 l 163 549 l 163 717 l 83 717 "},":":{"x_min":135,"x_max":252,"ha":387,"o":"m 135 0 l 252 0 l 252 147 l 135 147 l 135 0 m 135 548 l 252 548 l 252 695 l 135 695 l 135 548 "},"x":{"x_min":1.390625,"x_max":666.671875,"ha":668,"o":"m 279 372 l 1 0 l 109 0 l 330 301 l 555 0 l 666 0 l 387 373 l 645 717 l 536 717 l 336 444 l 131 717 l 22 717 l 279 372 "},"*":{"x_min":37.828125,"x_max":451.5625,"ha":489,"o":"m 37 826 l 197 772 l 96 636 l 140 604 l 241 743 l 343 604 l 387 636 l 287 772 l 451 826 l 430 878 l 271 821 l 271 992 l 217 992 l 217 821 l 57 878 l 37 826 "},"†":{"x_min":67,"x_max":706,"ha":773,"o":"m 67 611 l 342 611 l 342 -209 l 429 -209 l 429 611 l 706 611 l 706 685 l 429 685 l 429 992 l 342 992 l 342 685 l 67 685 l 67 611 "},"V":{"x_min":-8.328125,"x_max":836.109375,"ha":824,"o":"m -8 992 l 358 0 l 468 0 l 836 992 l 736 992 l 416 104 l 413 104 l 91 992 l -8 992 "},"h":{"x_min":82,"x_max":664,"ha":746,"o":"m 82 992 l 82 0 l 169 0 l 169 418 q 185 515 169 470 q 230 593 201 561 q 299 645 258 626 q 393 664 340 664 q 482 647 446 664 q 538 601 517 630 q 568 532 559 572 q 576 447 576 493 l 576 0 l 664 0 l 664 461 q 651 576 664 525 q 608 663 639 628 q 527 718 577 699 q 401 738 476 738 q 261 698 325 738 q 172 593 197 658 l 169 593 l 169 992 l 82 992 "},"0":{"x_min":47,"x_max":725,"ha":772,"o":"m 386 982 q 213 935 280 982 q 110 816 147 888 q 60 655 73 744 q 47 480 47 566 q 60 306 47 395 q 110 145 73 217 q 213 26 147 72 q 386 -19 280 -19 q 558 26 492 -19 q 661 145 624 72 q 711 306 698 217 q 725 481 725 395 q 711 655 725 566 q 661 816 698 744 q 558 935 624 888 q 386 982 492 982 m 386 908 q 519 864 469 908 q 595 757 569 821 q 629 618 620 693 q 637 481 637 543 q 629 343 637 417 q 595 204 620 268 q 519 96 569 139 q 386 53 469 53 q 252 96 302 53 q 176 204 202 139 q 142 343 151 268 q 134 481 134 417 q 142 618 134 543 q 176 757 151 693 q 252 864 202 821 q 386 908 302 908 "},".":{"x_min":135,"x_max":252,"ha":387,"o":"m 135 0 l 252 0 l 252 147 l 135 147 l 135 0 "},"\b":{"x_min":0,"x_max":0,"ha":0},"”":{"x_min":87,"x_max":425,"ha":514,"o":"m 211 992 l 94 992 l 94 845 l 152 845 q 150 808 153 828 q 138 768 146 788 q 117 734 130 749 q 87 714 105 719 l 87 654 q 142 682 119 662 q 180 727 165 701 q 203 783 195 753 q 211 843 211 812 l 211 992 m 425 992 l 308 992 l 308 845 l 366 845 q 364 808 367 828 q 352 768 360 788 q 331 734 344 749 q 301 714 319 719 l 301 654 q 356 682 333 662 q 394 727 379 701 q 417 783 409 753 q 425 843 425 812 l 425 992 "},"@":{"x_min":65,"x_max":1046,"ha":1111,"o":"m 719 355 l 852 757 l 778 757 l 744 665 q 681 755 720 728 q 597 783 642 783 q 462 747 523 783 q 358 654 401 712 q 291 525 315 596 q 268 381 268 453 q 280 303 268 339 q 316 239 293 267 q 374 195 340 211 q 451 180 408 180 q 549 209 504 180 q 627 271 595 238 l 630 271 q 660 201 634 225 q 723 178 687 178 q 839 209 781 178 q 943 295 897 240 q 1017 424 989 350 q 1046 581 1046 497 q 1009 756 1046 677 q 910 893 973 835 q 761 982 847 951 q 574 1014 675 1014 q 376 974 469 1014 q 213 865 283 934 q 104 703 144 797 q 65 500 65 609 q 103 295 65 391 q 210 130 141 200 q 373 20 278 60 q 580 -19 467 -19 q 708 -2 645 -19 q 828 46 772 14 q 931 124 884 78 q 1009 227 977 170 l 938 227 q 867 150 908 184 q 780 92 827 115 q 682 55 733 68 q 580 42 631 42 q 404 76 486 42 q 264 171 323 111 q 172 314 205 232 q 139 490 139 396 q 170 670 139 586 q 261 816 202 755 q 400 914 319 878 q 577 951 480 951 q 729 925 658 951 q 855 854 801 900 q 940 739 909 807 q 972 585 972 671 q 952 466 972 527 q 900 354 932 404 q 825 272 868 304 q 736 241 782 241 q 711 250 719 241 q 704 276 704 260 q 708 312 704 292 q 719 355 712 333 m 591 709 q 631 697 612 709 q 666 668 651 686 q 691 627 681 650 q 701 580 701 604 q 683 477 701 534 q 633 371 665 420 q 560 287 602 321 q 470 254 519 254 q 388 290 420 254 q 355 388 355 326 q 372 493 355 437 q 420 597 388 549 q 495 677 451 645 q 591 709 538 709 "},"f":{"x_min":8,"x_max":377,"ha":359,"o":"m 359 643 l 359 717 l 219 717 l 219 779 q 219 833 219 808 q 228 877 219 858 q 256 906 237 895 q 312 918 276 918 q 343 915 328 918 q 377 911 359 913 l 377 986 q 339 990 356 989 q 303 992 322 992 q 216 976 250 992 q 163 933 182 961 q 136 866 143 905 q 130 782 130 827 l 130 717 l 8 717 l 8 643 l 130 643 l 130 -1 l 217 -1 l 217 643 l 359 643 "},";":{"x_min":129,"x_max":252,"ha":387,"o":"m 135 548 l 252 548 l 252 695 l 135 695 l 135 548 m 252 147 l 135 147 l 135 0 l 193 0 q 191 -35 194 -15 q 179 -74 187 -55 q 158 -108 171 -93 q 129 -129 146 -123 l 129 -189 q 182 -161 159 -180 q 221 -116 205 -141 q 244 -60 236 -90 q 252 0 252 -30 l 252 147 "},"“":{"x_min":89,"x_max":427,"ha":515,"o":"m 89 655 l 206 655 l 206 802 l 147 802 q 149 838 146 818 q 161 877 153 858 q 182 911 169 896 q 213 932 194 925 l 213 992 q 158 964 182 984 q 119 919 134 945 q 96 863 104 893 q 89 803 89 834 l 89 655 m 303 655 l 420 655 l 420 802 l 361 802 q 363 838 360 818 q 375 877 367 858 q 396 911 383 896 q 427 932 408 925 l 427 992 q 372 964 396 984 q 333 919 348 945 q 310 863 318 893 q 303 803 303 834 l 303 655 "},"i":{"x_min":85,"x_max":172.5,"ha":257,"o":"m 85 992 l 85 852 l 172 852 l 172 992 l 85 992 m 85 717 l 85 0 l 172 0 l 172 717 l 85 717 "},"6":{"x_min":58,"x_max":724.5,"ha":772,"o":"m 613 727 l 700 727 q 608 919 685 856 q 400 982 531 982 q 263 954 320 982 q 167 881 206 926 q 106 782 129 837 q 70 674 83 727 q 58 573 58 620 q 58 496 58 525 q 78 255 58 353 q 139 96 98 157 q 244 8 181 35 q 396 -19 308 -19 q 528 5 468 -19 q 632 73 588 29 q 700 177 676 117 q 724 308 724 238 q 701 439 724 379 q 637 542 678 499 q 536 609 595 585 q 403 634 477 634 q 250 589 320 634 q 145 473 180 544 l 143 473 q 152 615 143 539 q 191 756 162 691 q 273 864 220 821 q 410 908 326 908 q 548 857 495 908 q 613 727 602 807 m 402 560 q 501 539 457 560 q 575 485 545 519 q 621 403 605 450 q 637 303 637 355 q 620 207 637 253 q 572 127 603 161 q 498 73 541 93 q 403 53 456 53 q 294 72 340 53 q 218 126 248 92 q 174 205 188 160 q 161 303 161 251 q 176 403 161 357 q 224 485 192 450 q 300 539 255 519 q 402 560 345 560 "},"A":{"x_min":-8.328125,"x_max":884.71875,"ha":875,"o":"m 240 389 l 438 897 l 630 389 l 240 389 m 390 992 l -8 0 l 91 0 l 211 308 l 662 308 l 783 0 l 884 0 l 495 992 l 390 992 "},"‘":{"x_min":132,"x_max":256,"ha":387,"o":"m 132 655 l 249 655 l 249 802 l 190 802 q 192 838 189 818 q 204 877 196 858 q 225 911 212 896 q 256 932 237 925 l 256 992 q 201 964 225 984 q 162 919 177 945 q 139 863 147 893 q 132 803 132 834 l 132 655 "},"n":{"x_min":82,"x_max":664,"ha":746,"o":"m 82 717 l 82 0 l 169 0 l 169 418 q 185 515 169 470 q 230 593 201 561 q 299 645 258 626 q 393 664 340 664 q 482 647 446 664 q 538 601 517 630 q 568 532 559 572 q 576 447 576 493 l 576 0 l 664 0 l 664 461 q 651 576 664 525 q 608 663 639 628 q 527 718 577 699 q 401 738 476 738 q 261 698 325 738 q 172 593 197 658 l 169 593 l 169 717 l 82 717 "},"O":{"x_min":47,"x_max":982,"ha":1029,"o":"m 141 496 q 162 656 141 578 q 229 796 184 734 q 345 895 274 857 q 515 933 416 933 q 684 895 613 933 q 799 796 754 857 q 866 656 844 734 q 888 496 888 578 q 866 337 888 415 q 799 196 844 258 q 684 97 754 135 q 515 60 613 60 q 345 97 416 60 q 229 196 274 135 q 162 337 184 258 q 141 496 141 415 m 47 496 q 76 300 47 393 q 163 136 105 207 q 310 23 222 65 q 515 -19 398 -19 q 719 23 631 -19 q 865 136 806 65 q 952 300 923 207 q 982 496 982 393 q 952 692 982 599 q 865 857 923 785 q 719 971 806 929 q 515 1014 631 1014 q 310 971 398 1014 q 163 857 222 929 q 76 692 105 785 q 47 496 47 599 "},"]":{"x_min":5.890625,"x_max":229.5,"ha":335,"o":"m 229 1013 l 5 1013 l 5 939 l 142 939 l 142 -190 l 5 -190 l 5 -264 l 229 -264 l 229 1013 "},"3":{"x_min":43,"x_max":712.5,"ha":772,"o":"m 132 310 l 43 310 q 65 169 43 230 q 133 67 88 108 q 241 3 178 25 q 379 -19 304 -19 q 506 0 445 -19 q 612 56 567 18 q 685 148 658 93 q 712 275 712 203 q 660 435 712 371 q 512 515 608 500 l 512 518 q 634 596 591 538 q 676 734 676 655 q 650 846 676 799 q 582 922 625 892 q 486 967 540 952 q 375 982 431 982 q 247 957 304 982 q 150 890 190 933 q 89 790 111 848 q 68 662 68 731 l 154 662 q 167 761 154 716 q 210 839 181 806 q 280 889 238 871 q 376 908 322 908 q 459 897 420 908 q 526 864 497 887 q 572 807 555 841 q 589 724 589 773 q 570 645 589 678 q 524 590 552 611 q 460 558 495 568 q 391 548 424 548 l 318 548 l 318 474 l 391 474 q 482 461 439 474 q 556 423 524 449 q 606 359 588 397 q 625 268 625 321 q 604 176 625 217 q 548 108 583 136 q 469 67 514 81 q 377 53 425 53 q 272 72 318 53 q 195 124 226 90 q 147 204 163 157 q 132 310 132 251 "},"m":{"x_min":83,"x_max":1073.5,"ha":1157,"o":"m 83 717 l 83 0 l 170 0 l 170 400 q 183 504 170 457 q 221 588 195 552 q 287 643 246 623 q 384 664 328 664 q 455 650 426 664 q 501 611 484 636 q 526 555 519 587 q 534 486 534 522 l 534 0 l 622 0 l 622 405 q 631 502 622 455 q 662 584 640 548 q 722 642 684 620 q 816 664 759 664 q 948 617 910 664 q 986 482 986 571 l 986 0 l 1073 0 l 1073 486 q 835 738 1073 738 q 702 703 765 738 q 608 597 640 668 q 531 703 588 668 q 402 738 473 738 q 258 700 314 738 q 167 596 202 662 l 163 596 l 163 717 l 83 717 "},"9":{"x_min":47,"x_max":712,"ha":772,"o":"m 158 234 l 70 234 q 162 42 85 104 q 370 -19 239 -19 q 507 8 449 -19 q 602 80 564 36 q 663 179 640 124 q 699 287 686 234 q 712 388 712 341 q 712 464 712 435 q 691 705 712 606 q 630 865 671 804 q 525 954 589 927 q 373 982 462 982 q 242 956 302 982 q 138 888 182 931 q 71 783 95 844 q 47 652 47 723 q 69 521 47 581 q 134 418 92 461 q 235 351 176 375 q 367 327 295 327 q 521 371 451 327 q 626 488 591 416 l 629 488 q 619 345 629 421 q 580 204 609 269 q 499 96 551 139 q 360 53 447 53 q 222 103 276 53 q 158 234 169 153 m 369 401 q 269 421 313 401 q 196 476 226 441 q 150 557 166 510 q 134 657 134 605 q 151 753 134 707 q 199 833 167 799 q 273 887 230 867 q 367 908 316 908 q 477 888 431 908 q 553 835 523 869 q 597 755 583 801 q 611 657 611 710 q 595 557 611 603 q 547 476 579 510 q 471 421 516 441 q 369 401 426 401 "},"l":{"x_min":85,"x_max":172.5,"ha":257,"o":"m 85 992 l 85 0 l 172 0 l 172 992 l 85 992 "},"8":{"x_min":53,"x_max":721,"ha":772,"o":"m 386 556 q 309 565 347 556 q 243 597 272 575 q 196 654 214 620 q 178 738 178 689 q 195 812 178 780 q 241 864 212 844 q 308 896 271 885 q 386 908 346 908 q 468 896 430 908 q 533 864 505 885 q 577 812 561 844 q 593 738 593 780 q 576 656 593 691 q 530 599 558 621 q 464 566 501 577 q 386 556 426 556 m 681 738 q 655 847 681 801 q 587 922 629 892 q 492 967 544 952 q 385 982 439 982 q 278 967 330 982 q 183 922 225 952 q 116 847 141 892 q 90 738 90 801 q 131 602 90 657 q 249 524 172 547 l 249 521 q 105 436 157 504 q 53 272 53 368 q 79 144 53 199 q 151 53 105 89 q 258 0 197 17 q 387 -19 319 -19 q 516 0 456 -19 q 622 53 576 17 q 694 144 668 89 q 721 272 721 199 q 669 437 721 372 q 522 521 618 502 l 522 524 q 639 602 597 546 q 681 738 681 659 m 386 53 q 289 67 334 53 q 211 107 244 80 q 158 176 177 134 q 139 272 139 218 q 159 364 139 324 q 212 432 179 405 q 291 471 245 459 q 386 484 336 484 q 479 470 434 484 q 559 430 525 457 q 613 364 593 403 q 633 272 633 324 q 614 175 633 216 q 561 106 594 133 q 482 66 527 79 q 386 53 437 53 "},"p":{"x_min":83,"x_max":744,"ha":797,"o":"m 83 717 l 83 -264 l 170 -264 l 170 136 l 173 136 q 212 68 187 97 q 271 19 238 39 q 344 -9 305 0 q 421 -19 382 -19 q 564 10 503 -19 q 664 92 624 40 q 724 213 705 144 q 744 358 744 282 q 724 503 744 435 q 664 624 705 572 q 564 707 624 676 q 421 738 503 738 q 265 696 334 738 q 166 581 196 655 l 163 581 l 163 717 l 83 717 m 656 358 q 643 248 656 302 q 601 150 630 193 q 528 80 573 107 q 421 53 484 53 q 304 80 352 53 q 226 150 256 107 q 183 248 196 193 q 170 358 170 302 q 182 475 170 419 q 223 572 194 530 q 301 639 252 614 q 421 664 349 664 q 528 636 484 664 q 601 566 573 609 q 643 468 630 523 q 656 358 656 414 "},"4":{"x_min":42,"x_max":717,"ha":773,"o":"m 490 316 l 121 316 l 487 845 l 490 845 l 490 316 m 42 327 l 42 242 l 490 242 l 490 0 l 571 0 l 571 242 l 717 242 l 717 316 l 571 316 l 571 973 l 491 973 l 42 327 "},"‡":{"x_min":67,"x_max":706,"ha":773,"o":"m 67 65 l 342 65 l 342 -209 l 429 -209 l 429 65 l 706 65 l 706 139 l 429 139 l 429 643 l 706 643 l 706 717 l 429 717 l 429 992 l 342 992 l 342 717 l 67 717 l 67 643 l 342 643 l 342 139 l 67 139 l 67 65 "},"R":{"x_min":100,"x_max":881.390625,"ha":926,"o":"m 194 520 l 194 911 l 546 911 q 708 858 655 911 q 761 713 761 805 q 743 632 761 667 q 697 571 726 596 q 628 533 667 546 q 546 520 590 520 l 194 520 m 100 992 l 100 0 l 194 0 l 194 441 l 553 441 q 658 416 619 441 q 717 350 696 391 q 743 258 737 309 q 750 153 750 206 q 754 117 754 138 q 756 74 754 96 q 763 33 758 53 q 777 0 768 13 l 881 0 q 855 49 866 17 q 840 119 845 82 q 836 192 836 156 q 836 253 836 228 q 826 336 836 297 q 797 403 817 374 q 743 451 776 432 q 663 477 711 470 l 663 479 q 806 568 758 499 q 855 733 855 638 q 830 849 855 799 q 765 930 806 898 q 669 976 724 961 q 553 992 614 992 l 100 992 "},"\r":{"x_min":0,"x_max":0,"ha":386},"o":{"x_min":47,"x_max":725,"ha":772,"o":"m 386 665 q 495 638 448 665 q 574 569 543 612 q 621 471 605 525 q 637 359 637 416 q 621 247 637 302 q 574 149 605 192 q 495 79 543 106 q 386 53 448 53 q 276 79 323 53 q 197 149 229 106 q 150 247 166 192 q 134 359 134 302 q 150 471 134 416 q 197 569 166 525 q 276 638 229 612 q 386 665 323 665 m 386 739 q 240 708 304 739 q 134 626 177 677 q 69 506 91 574 q 47 359 47 437 q 69 212 47 281 q 134 92 91 143 q 240 10 177 40 q 386 -19 304 -19 q 531 10 467 -19 q 637 92 594 40 q 702 212 680 143 q 725 359 725 281 q 702 506 725 437 q 637 626 680 574 q 531 708 594 677 q 386 739 467 739 "},"5":{"x_min":50,"x_max":707,"ha":772,"o":"m 137 278 l 50 278 q 75 153 50 208 q 142 59 100 97 q 242 1 185 21 q 368 -19 300 -19 q 500 5 438 -19 q 608 73 562 29 q 680 177 654 117 q 707 308 707 237 q 684 444 707 382 q 618 550 661 506 q 516 620 576 595 q 380 645 455 645 q 266 621 322 645 q 175 554 211 597 l 172 557 l 234 880 l 660 880 l 660 961 l 173 961 l 79 456 l 154 456 q 247 541 190 511 q 370 571 304 571 q 470 551 425 571 q 549 498 516 532 q 600 418 582 464 q 619 318 619 372 q 602 217 619 265 q 554 133 586 169 q 477 74 521 96 q 375 53 432 53 q 282 69 325 53 q 207 115 239 85 q 156 186 175 144 q 137 278 137 228 "}}}
